<?xml version="1.0" standalone="no"?>
<!DOCTYPE svg PUBLIC "-//W3C//DTD SVG 20010904//EN"
 "http://www.w3.org/TR/2001/REC-SVG-20010904/DTD/svg10.dtd">
<svg version="1.0" xmlns="http://www.w3.org/2000/svg"
 width="261.000000pt" height="261.000000pt" viewBox="0 0 261.000000 261.000000"
 preserveAspectRatio="xMidYMid meet">
<metadata>
Created by potrace 1.14, written by Peter Selinger 2001-2017
</metadata>
<g transform="translate(0.000000,261.000000) scale(0.100000,-0.100000)"
fill="#000000" stroke="none">
<path d="M1105 2545 c-432 -71 -800 -362 -959 -760 -85 -210 -108 -397 -81
-660 15 -150 101 -378 192 -508 169 -244 399 -417 672 -507 132 -43 225 -53
433 -47 158 4 194 8 263 30 245 76 397 167 565 336 180 181 279 359 334 601
22 99 28 163 28 295 -2 365 -165 705 -452 946 -156 130 -343 219 -560 265 -98
21 -331 26 -435 9z"/>
</g>
</svg>
